<?xml version="1.0" encoding="utf-8"?>
<!-- Generator: Adobe Illustrator 15.0.0, SVG Export Plug-In . SVG Version: 6.00 Build 0)  -->
<!DOCTYPE svg PUBLIC "-//W3C//DTD SVG 1.1//EN" "http://www.w3.org/Graphics/SVG/1.1/DTD/svg11.dtd">
<svg version="1.1" id="Layer_1" xmlns="http://www.w3.org/2000/svg" xmlns:xlink="http://www.w3.org/1999/xlink" x="0px" y="0px"
	 width="22.93px" height="15.01px" viewBox="0 0 22.93 15.01" enable-background="new 0 0 22.93 15.01" xml:space="preserve">
<g>
	<rect x="-0.249" y="-0.001" fill="#2B2D7A" width="23.428" height="15.011"/>
	<polygon fill="#FFFFFF" points="-0.249,15.01 2.442,15.01 23.179,1.684 23.179,-0.001 20.731,-0.001 -0.249,13.402 	"/>
	<polygon fill="#FFFFFF" points="2.323,-0.001 -0.249,-0.001 -0.249,1.602 20.611,15.01 23.179,15.01 23.179,13.322 	"/>
	<polygon fill="#BE2026" points="-0.249,14.949 -0.249,15.01 1.371,15.01 11.033,8.853 10.166,8.294 	"/>
	<polygon fill="#BE2026" points="21.393,-0.001 11.857,6.091 12.729,6.648 23.165,-0.001 	"/>
	<polygon fill="#BE2026" points="-0.249,1.188 5.879,5.14 7.855,5.14 -0.193,-0.001 -0.249,-0.001 	"/>
	<polygon fill="#BE2026" points="23.179,13.744 17.108,9.867 15.343,9.867 23.179,14.871 	"/>
	<polygon fill="#FFFFFF" points="23.179,5.14 13.438,5.14 13.438,-0.001 9.491,-0.001 9.491,5.14 -0.249,5.14 -0.249,9.867 
		9.491,9.867 9.491,15.01 13.438,15.01 13.438,9.867 23.179,9.867 	"/>
	<rect x="-0.249" y="6.026" fill="#BE2026" width="23.428" height="2.954"/>
	<rect x="10.382" y="-0.001" fill="#BE2026" width="2.166" height="15.011"/>
</g>
</svg>
